# xmcd
#
# Track frame offsets: 
#        150
#        12173
#        23101
#        32902
#        44936
#        55268
#        68459
#        80253
#        91808
#        103038
#        112560
#        126045
#        139460
#        152658
#        165219
#        181518
#        213157
#        225564
#        239165
#        249622
#        270991
#        282333
#        294941
#        306881
#        318879
#
# Disc length: 4409 seconds
#
# Revision: 5
# Processed by: cddbd v1.5.2PL0 Copyright (c) Steve Scherf et al.
# Submitted via: ExactAudioCopy v1.1
#
DISCID=46113719
DTITLE=Johnnie Taylor - Lifetime - A Retrospective Of Soul, Blues, and G
DTITLE=ospel (1956-1999) [Disc 1]
DYEAR=2000
DGENRE=Soul
TTITLE0=The Highway Q.C.'s - I Dreamed Heaven Was Like This (mono)
TTITLE1=The Soul Stirrers featuring Johnnie Taylor - Heaven Is My Home
TTITLE1=(alt - take 1) (mono)
TTITLE2=The Soul Stirrers featuring Johnnie Taylor - The Love Of God (
TTITLE2=alt - take 7) (mono)
TTITLE3=The Soul Stirrers featuring Johnnie Taylor - Out On A Hill (al
TTITLE3=t - take 1) (mono)
TTITLE4=The Soul Stirrers featuring Johnnie Taylor - Until Then (take 
TTITLE4=3) (mono)
TTITLE5=The Soul Stirrers featuring Johnnie Taylor - When The Gates Sw
TTITLE5=ing Open (mono)
TTITLE6=Never, Never (mono)
TTITLE7=Rome (Wasn't Built In A Day) (mono)
TTITLE8=Dance What You Wanna (mono)
TTITLE9=Baby, We've Got Love (mono)
TTITLE10=I Had A Dream (mono)
TTITLE11=Easy Lovin' (stereo)
TTITLE12=I've Got To Love Somebody's Baby (stereo)
TTITLE13=Just The One (I've Been Looking For) (alt - take 7) (mono)
TTITLE14=Part Time Love (alt - take 2) (mono)
TTITLE15=Sixteen Tons (alt - take 6) (stereo)
TTITLE16=Somebody's Sleeping In My Bed (stereo)
TTITLE17=Blues In The Night (alt - take 1) (stereo)
TTITLE18=Save Your Love For Me (alt - take 2) (stereo)
TTITLE19=I Need Lots Of Love (stereo)
TTITLE20=You Can't Win With A Losing Hand (alt - take 3) (mono)
TTITLE21=Rumors (stereo)
TTITLE22=You Don't Know Like I Know (take 3) (stereo)
TTITLE23=Twenty Years From Today (alt - take 4) (stereo)
TTITLE24=Twenty Years From Today (alt - take 7) (stereo)
EXTD=Label: Fantasy Inc. - Stax Records\n3SCD-4432-2
EXTT0=
EXTT1=
EXTT2=
EXTT3=
EXTT4=
EXTT5=
EXTT6=
EXTT7=
EXTT8=
EXTT9=
EXTT10=
EXTT11=
EXTT12=
EXTT13=
EXTT14=
EXTT15=
EXTT16=
EXTT17=
EXTT18=
EXTT19=
EXTT20=
EXTT21=
EXTT22=
EXTT23=
EXTT24=
PLAYORDER=
